<svg xmlns="http://www.w3.org/2000/svg" viewBox="0 0 1600 1040" role="img" aria-labelledby="title desc">
  <title id="title">ACEHarness 核心亮点总览</title>
  <defs>
    <linearGradient id="bg" x1="0" y1="0" x2="1" y2="1">
      <stop offset="0%" stop-color="#081120"/>
      <stop offset="52%" stop-color="#10192f"/>
      <stop offset="100%" stop-color="#160f2c"/>
    </linearGradient>
    <linearGradient id="heroFill" x1="0" y1="0" x2="1" y2="1">
      <stop offset="0%" stop-color="#111c35" stop-opacity="0.96"/>
      <stop offset="100%" stop-color="#0a1120" stop-opacity="0.94"/>
    </linearGradient>
    <linearGradient id="cardFill" x1="0" y1="0" x2="1" y2="1">
      <stop offset="0%" stop-color="#0f172a" stop-opacity="0.94"/>
      <stop offset="100%" stop-color="#0a1020" stop-opacity="0.96"/>
    </linearGradient>
    <radialGradient id="glowBlue" cx="50%" cy="50%" r="50%">
      <stop offset="0%" stop-color="#38bdf8" stop-opacity="0.22"/>
      <stop offset="100%" stop-color="#38bdf8" stop-opacity="0"/>
    </radialGradient>
    <radialGradient id="glowPink" cx="50%" cy="50%" r="50%">
      <stop offset="0%" stop-color="#f472b6" stop-opacity="0.16"/>
      <stop offset="100%" stop-color="#f472b6" stop-opacity="0"/>
    </radialGradient>
    <filter id="shadow" x="-20%" y="-20%" width="160%" height="180%">
      <feDropShadow dx="0" dy="18" stdDeviation="24" flood-color="#020617" flood-opacity="0.36"/>
    </filter>
  </defs>

  <rect width="1600" height="1040" fill="url(#bg)"/>
  <circle cx="250" cy="170" r="250" fill="url(#glowBlue)"/>
  <circle cx="1360" cy="860" r="280" fill="url(#glowPink)"/>
  <path d="M0 156C256 96 430 242 684 228C940 214 1164 96 1600 170V0H0Z" fill="#ffffff" fill-opacity="0.04"/>
  <path d="M0 850C282 756 548 916 800 884C1122 844 1344 714 1600 778V1040H0Z" fill="#ffffff" fill-opacity="0.03"/>

  <g font-family="Segoe UI, PingFang SC, Microsoft YaHei, sans-serif">
    <text x="80" y="146" fill="#f8fafc" font-size="50" font-weight="700">ACE Harness 核心亮点总览</text>
  </g>
  
  <g filter="url(#shadow)" font-family="Segoe UI, PingFang SC, Microsoft YaHei, sans-serif">
    <rect x="80" y="304" width="704" height="224" rx="28" fill="url(#cardFill)" stroke="#334155" stroke-width="1.2"/>
    <rect x="80" y="304" width="8" height="224" rx="4" fill="#ef4444"/>
    <circle cx="124" cy="352" r="18" fill="#ef4444" fill-opacity="0.18" stroke="#f87171"/>
    <text x="124" y="359" text-anchor="middle" fill="#fecaca" font-size="18" font-weight="700">1</text>
    <text x="154" y="344" fill="#fca5a5" font-size="15" font-weight="700" letter-spacing="1.2">BLUE TEAM VS RED TEAM</text>
    <text x="154" y="382" fill="#f8fafc" font-size="29" font-weight="700">对抗式迭代</text>
    <rect x="624" y="332" width="124" height="34" rx="17" fill="#ef4444" fill-opacity="0.12" stroke="#f87171" stroke-opacity="0.6"/>
    <text x="686" y="354" text-anchor="middle" fill="#fecaca" font-size="18" font-weight="700">17 个 Agent</text>
    <text x="124" y="420" fill="#cbd5e1" font-size="17">
      <tspan x="124" dy="0">Defender / Attacker / Judge 三角闭环覆盖实现、审查、仲裁。</tspan>
      <tspan x="124" dy="24">Judge 输出结构化 verdict，系统自动决定通过或继续迭代。</tspan>
      <tspan x="124" dy="24">部分 Agent 带 Review Panel，由多个子 Agent 并行会审。</tspan>
    </text>
    <rect x="124" y="480" width="460" height="30" rx="15" fill="#111827" fill-opacity="0.9" stroke="#374151"/>
    <text x="144" y="500" fill="#fca5a5" font-size="15" font-weight="600">Judge输出结构化判决，系统据此自动决定"通过"或"继续迭代"</text>

    <rect x="816" y="304" width="704" height="224" rx="28" fill="url(#cardFill)" stroke="#334155" stroke-width="1.2"/>
    <rect x="816" y="304" width="8" height="224" rx="4" fill="#ec4899"/>
    <circle cx="860" cy="352" r="18" fill="#ec4899" fill-opacity="0.18" stroke="#f9a8d4"/>
    <text x="860" y="359" text-anchor="middle" fill="#fce7f3" font-size="18" font-weight="700">2</text>
    <text x="890" y="344" fill="#f9a8d4" font-size="15" font-weight="700" letter-spacing="1.2">ANALYZE DURING EXECUTION</text>
    <text x="890" y="382" fill="#f8fafc" font-size="29" font-weight="700">自动化分析</text>
    <rect x="1352" y="332" width="140" height="34" rx="17" fill="#ec4899" fill-opacity="0.12" stroke="#f9a8d4" stroke-opacity="0.6"/>
    <text x="1423" y="354" text-anchor="middle" fill="#fce7f3" font-size="18" font-weight="700">O0 / O1 / O2</text>
    <text x="860" y="420" fill="#cbd5e1" font-size="17">
      <tspan x="860" dy="0">自动识别该跑哪些回归级别，而不是盲目全量回归。</tspan>
      <tspan x="860" dy="24">实时标记回退热点、Token 用量和费用，支持成本决策。</tspan>
      <tspan x="860" dy="24">历史 Prompt 还能继续做质量评估与优化建议。</tspan>
    </text>
    <rect x="860" y="480" width="490" height="30" rx="15" fill="#111827" fill-opacity="0.9" stroke="#374151"/>
    <text x="880" y="500" fill="#f9a8d4" font-size="15" font-weight="600">回归范围、回退热点、Token 成本、Prompt 质量统一分析</text>

    <rect x="80" y="542" width="704" height="224" rx="28" fill="url(#cardFill)" stroke="#334155" stroke-width="1.2"/>
    <rect x="80" y="542" width="8" height="224" rx="4" fill="#f59e0b"/>
    <circle cx="124" cy="590" r="18" fill="#f59e0b" fill-opacity="0.18" stroke="#fbbf24"/>
    <text x="124" y="597" text-anchor="middle" fill="#fef3c7" font-size="18" font-weight="700">3</text>
    <text x="154" y="582" fill="#fde68a" font-size="15" font-weight="700" letter-spacing="1.2">HUMAN-IN-THE-LOOP</text>
    <text x="154" y="620" fill="#f8fafc" font-size="29" font-weight="700">人工检查点</text>
    <rect x="566" y="570" width="184" height="34" rx="17" fill="#f59e0b" fill-opacity="0.12" stroke="#fbbf24" stroke-opacity="0.6"/>
    <text x="658" y="592" text-anchor="middle" fill="#fef3c7" font-size="18" font-weight="700">审批 / 注入 / 跳转</text>
    <text x="124" y="664" fill="#cbd5e1" font-size="17">
      <tspan x="124" dy="0">设计完成后先审批，修复完成后再决定继续迭代还是接受。</tspan>
      <tspan x="124" dy="24">支持反馈注入，在运行过程中随时补充新的约束与目标。</tspan>
      <tspan x="124" dy="24">不满意当前路径时可以强制跳转到任意状态继续执行。</tspan>
    </text>
    <rect x="124" y="718" width="430" height="30" rx="15" fill="#111827" fill-opacity="0.9" stroke="#374151"/>
    <text x="144" y="738" fill="#fde68a" font-size="15" font-weight="600">把人工判断嵌进自动化主路径，而不是放到流程外兜底</text>

    <rect x="816" y="542" width="704" height="224" rx="28" fill="url(#cardFill)" stroke="#334155" stroke-width="1.2"/>
    <rect x="816" y="542" width="8" height="224" rx="4" fill="#8b5cf6"/>
    <circle cx="860" cy="590" r="18" fill="#8b5cf6" fill-opacity="0.18" stroke="#a78bfa"/>
    <text x="860" y="597" text-anchor="middle" fill="#ede9fe" font-size="18" font-weight="700">4</text>
    <text x="890" y="582" fill="#c4b5fd" font-size="15" font-weight="700" letter-spacing="1.2">STATE MACHINE ENGINE</text>
    <text x="890" y="620" fill="#f8fafc" font-size="29" font-weight="700">状态机工作流引擎</text>
    <rect x="1350" y="570" width="128" height="34" rx="17" fill="#8b5cf6" fill-opacity="0.12" stroke="#a78bfa" stroke-opacity="0.6"/>
    <text x="1420" y="592" text-anchor="middle" fill="#ede9fe" font-size="18" font-weight="700">防死循环</text>
    <text x="860" y="664" fill="#cbd5e1" font-size="17">
      <tspan x="860" dy="0">有限状态机根据 verdict 条件跳转，失败时自动回退到上游状态。</tspan>
      <tspan x="860" dy="24">状态级上下文与全局信息并存，服务重启后还能断点续跑。</tspan>
    </text>
    <rect x="860" y="718" width="340" height="30" rx="15" fill="#111827" fill-opacity="0.9" stroke="#374151"/>
    <text x="880" y="738" fill="#ddd6fe" font-size="15" font-weight="600">真实记录：ICE 修复中自动回退 3 次</text>
    <text x="1230" y="738" fill="#94a3b8" font-size="15">支持断点续跑与防死循环</text>

    <rect x="80" y="780" width="704" height="224" rx="28" fill="url(#cardFill)" stroke="#334155" stroke-width="1.2"/>
    <rect x="80" y="780" width="8" height="224" rx="4" fill="#22c55e"/>
    <circle cx="124" cy="828" r="18" fill="#22c55e" fill-opacity="0.18" stroke="#4ade80"/>
    <text x="124" y="835" text-anchor="middle" fill="#dcfce7" font-size="18" font-weight="700">5</text>
    <text x="154" y="820" fill="#bbf7d0" font-size="15" font-weight="700" letter-spacing="1.2">CHAT-DRIVEN WORKFLOW CREATION</text>
    <text x="154" y="858" fill="#f8fafc" font-size="29" font-weight="700">对话式创建工作流</text>
    <rect x="622" y="808" width="126" height="34" rx="17" fill="#22c55e" fill-opacity="0.12" stroke="#4ade80" stroke-opacity="0.6"/>
    <text x="685" y="830" text-anchor="middle" fill="#dcfce7" font-size="18" font-weight="700">70+ 指令</text>
    <text x="124" y="902" fill="#cbd5e1" font-size="18">
      <tspan x="124" dy="0">一句话就能创建、修改、启动工作流，甚至直接发起 PR。</tspan>
      <tspan x="124" dy="28">AI 会引导模式选择、Agent 配置和迭代策略设定。</tspan>
    </text>
    <rect x="124" y="956" width="430" height="30" rx="15" fill="#111827" fill-opacity="0.9" stroke="#374151"/>
    <text x="144" y="976" fill="#bbf7d0" font-size="15" font-weight="600">风险分级：自动执行 / 需确认 / 二次确认</text>

    <rect x="816" y="780" width="704" height="224" rx="28" fill="url(#cardFill)" stroke="#334155" stroke-width="1.2"/>
    <rect x="816" y="780" width="8" height="224" rx="4" fill="#06b6d4"/>
    <circle cx="860" cy="828" r="18" fill="#06b6d4" fill-opacity="0.18" stroke="#67e8f9"/>
    <text x="860" y="835" text-anchor="middle" fill="#cffafe" font-size="18" font-weight="700">6</text>
    <text x="890" y="820" fill="#a5f3fc" font-size="15" font-weight="700" letter-spacing="1.2">SUPERVISOR ROUTING</text>
    <text x="890" y="858" fill="#f8fafc" font-size="29" font-weight="700">Supervisor 智能路由</text>
    <rect x="1300" y="808" width="200" height="34" rx="17" fill="#06b6d4" fill-opacity="0.12" stroke="#67e8f9" stroke-opacity="0.6"/>
    <text x="1400" y="830" text-anchor="middle" fill="#cffafe" font-size="18" font-weight="700">让 AI 决定找谁干活</text>
    <text x="860" y="902" fill="#cbd5e1" font-size="18">
      <tspan x="860" dy="0">Agent 只声明缺什么，Supervisor 负责路由，WorkflowManager 负责流转。</tspan>
      <tspan x="860" dy="28">关键词命中零成本直达，未命中再调轻量 LLM，最后 fallback 给用户。</tspan>
    </text>
    <rect x="860" y="956" width="494" height="30" rx="15" fill="#111827" fill-opacity="0.9" stroke="#374151"/>
    <text x="880" y="976" fill="#a5f3fc" font-size="15" font-weight="600">Plan loop: keyword match -&gt; lightweight LLM -&gt; user fallback</text>
  </g>

  <g opacity="0.24">
    <line x1="784" y1="416" x2="816" y2="416" stroke="#475569" stroke-width="1.5" stroke-dasharray="6 6"/>
    <line x1="784" y1="654" x2="816" y2="654" stroke="#475569" stroke-width="1.5" stroke-dasharray="6 6"/>
    <line x1="784" y1="892" x2="816" y2="892" stroke="#475569" stroke-width="1.5" stroke-dasharray="6 6"/>
  </g>
</svg>
