<svg version="1.0" xmlns="http://www.w3.org/2000/svg" width="800.000000" height="800.000000" viewBox="0 0 800.000000 800.000000" preserveAspectRatio="xMidYMid meet">
  <metadata>
    <rdf:RDF xmlns:rdf="http://www.w3.org/1999/02/22-rdf-syntax-ns#" xmlns:rdfs="http://www.w3.org/2000/01/rdf-schema#" xmlns:dc="http://purl.org/dc/elements/1.1/">
      <rdf:Description dc:format="image/svg+xml" dc:Label="1" dc:ContentProducer="001191330110MACRLGPT8B00000" dc:ProduceID="398403622" dc:ReservedCode1="78BIhQSmyHtadS6KS3B+5TJGdtvZaC7Jo7TUgkWkCG0=" dc:ContentPropagator="001191330110MACRLGPT8B00000" dc:PropagateID="398403622" dc:ReservedCode2="78BIhQSmyHtadS6KS3B+5TJGdtvZaC7Jo7TUgkWkCG0="/>
    </rdf:RDF>
  </metadata>
  <g transform="translate(0.000000,800.000000) scale(0.100000,-0.100000)" fill="#000000" stroke="none">
    <path d="M3905 6273 c-657 -80 -1193 -404 -1554 -938 -178 -263 -291 -548 -346 -875 -22 -128 -31 -449 -16 -576 46 -388 178 -734 397 -1041 85 -118 224 -271 317 -350 44 -37 111 -98 147 -135 53 -53 77 -69 120 -82 30 -9 60 -16 68 -16 8 0 27 -9 43 -21 47 -33 288 -145 374 -173 120 -40 118 -35 47 -110 -52 -56 -65 -77 -87 -146 -28 -92 -31 -142 -11 -191 42 -99 162 -135 423 -127 210 7 275 39 304 150 16 60 -2 168 -42 246 -16 31 -29 57 -29 57 0 0 63 0 140 0 77 0 140 -2 140 -3 0 -2 -9 -15 -20 -29 -27 -35 -70 -174 -70 -228 0 -90 50 -155 140 -183 80 -25 401 -25 482 1 110 34 151 106 130 230 -16 93 -43 147 -103 207 -42 42 -49 55 -49 88 0 39 0 39 63 62 77 28 278 128 332 166 36 25 47 27 117 25 60 -2 85 2 116 18 87 44 147 121 163 207 7 37 26 66 105 157 288 334 461 719 519 1151 22 162 17 520 -10 661 -43 235 -96 398 -195 600 -321 659 -947 1104 -1680 1194 -78 10 -406 13 -475 4z m487 -59 c800 -103 1475 -655 1728 -1414 160 -481 145 -1036 -40 -1495 -83 -206 -221 -435 -357 -591 l-76 -87 -29 59 c-16 33 -52 90 -80 128 -33 46 -47 74 -42 82 5 6 37 49 72 95 35 46 85 117 110 157 26 40 71 103 100 139 29 36 55 78 58 92 3 14 21 82 40 151 56 209 99 507 89 618 -31 352 -95 589 -226 842 -83 159 -174 284 -309 421 -277 281 -547 434 -900 511 -92 19 -133 22 -330 22 -197 0 -238 -3 -330 -22 -523 -114 -980 -469 -1253 -973 -102 -189 -187 -457 -207 -656 -6 -59 -18 -154 -26 -210 -14 -90 -14 -109 -1 -180 9 -43 21 -116 27 -163 42 -312 193 -647 404 -892 36 -42 66 -79 66 -82 0 -3 -15 -25 -33 -49 -41 -54 -61 -121 -55 -187 l5 -49 -47 39 c-72 61 -222 220 -290 310 -369 485 -510 1119 -383 1724 115 551 440 1031 904 1336 256 169 604 295 909 329 128 14 370 12 502 -5z m78 -498 c381 -58 708 -249 930 -544 353 -468 421 -1161 169 -1710 -69 -151 -185 -324 -201 -299 -4 7 -19 47 -34 90 -14 42 -34 83 -43 90 -10 6 -37 52 -61 102 -30 63 -58 104 -95 140 -29 29 -61 69 -70 89 -26 54 -103 130 -166 162 l-54 27 57 17 c103 31 167 85 189 159 9 30 18 40 38 44 32 7 94 65 118 110 41 81 56 235 32 349 -23 110 -106 238 -154 238 -8 0 -19 17 -25 43 -17 66 -41 128 -67 173 -21 36 -24 58 -28 170 -8 191 -13 212 -50 198 -14 -6 -15 -20 -9 -123 l7 -116 -69 65 c-118 111 -234 177 -391 222 -67 20 -100 23 -238 22 -144 0 -169 -3 -248 -27 -148 -46 -255 -108 -371 -217 l-69 -65 5 112 c4 88 3 115 -8 124 -11 9 -18 8 -29 -1 -12 -10 -15 -41 -15 -161 0 -146 0 -149 -29 -194 -23 -37 -48 -102 -76 -201 -2 -6 -18 -14 -35 -18 -61 -12 -133 -116 -161 -232 -6 -27 -12 -94 -12 -149 0 -80 5 -112 23 -159 27 -70 88 -140 135 -156 25 -8 35 -19 40 -40 9 -42 57 -103 101 -131 21 -13 72 -33 114 -45 l75 -22 -45 -12 c-117 -31 -234 -126 -274 -223 -18 -46 -34 -64 -84 -101 -62 -46 -100 -99 -122 -171 -7 -22 -23 -52 -36 -66 -15 -16 -29 -48 -36 -85 -14 -76 -53 -208 -76 -259 l-18 -40 -67 90 c-71 96 -170 279 -213 391 -38 102 -80 286 -94 413 -67 599 190 1221 657 1595 213 171 480 290 738 330 120 19 327 19 445 2z m23 -360 c276 -82 483 -280 554 -531 13 -46 17 -114 20 -290 5 -274 -13 -480 -44 -523 -40 -57 -169 -101 -398 -138 -136 -22 -558 -26 -703 -6 -311 42 -433 92 -462 190 -6 20 -14 136 -17 257 -9 345 19 540 98 670 120 200 310 336 539 386 122 27 293 21 413 -15z m-1094 -673 c-4 -32 -8 -167 -8 -300 -1 -177 -4 -243 -13 -243 -22 0 -86 79 -102 126 -10 31 -16 81 -16 143 0 139 32 241 92 302 45 45 55 39 47 -28z m1771 -9 c50 -80 65 -137 65 -259 0 -134 -20 -199 -77 -251 -21 -19 -42 -34 -46 -34 -5 0 -4 33 0 73 5 39 10 172 11 294 1 123 5 223 10 223 4 0 21 -21 37 -46z m-312 -876 c86 -43 156 -120 172 -189 15 -60 9 -324 -7 -340 -15 -15 -230 -56 -384 -74 -191 -23 -603 -31 -780 -16 -143 12 -330 41 -401 61 -47 13 -53 38 -53 205 0 108 3 125 25 168 32 64 86 111 172 152 80 39 158 58 218 53 l40 -3 -25 -27 -25 -27 22 -15 c49 -32 151 -48 343 -53 200 -5 326 8 415 43 48 20 50 33 7 58 l-32 20 70 8 c39 5 75 10 80 13 22 10 83 -6 143 -37z m318 -364 c47 -96 48 -150 6 -236 -17 -35 -47 -81 -66 -103 l-35 -40 -1 71 c0 39 3 153 7 254 l6 183 25 -29 c13 -16 39 -61 58 -100z m-1816 -154 c6 -58 7 -139 4 -181 l-7 -76 -56 31 c-76 42 -96 83 -96 191 0 96 19 139 92 205 l48 45 2 -55 c2 -30 7 -102 13 -160z m1981 -186 c38 -92 66 -170 64 -174 -3 -4 -22 -10 -43 -14 -45 -7 -140 -44 -163 -63 -8 -7 -20 -13 -26 -13 -5 0 -23 37 -40 81 l-31 81 44 55 c46 56 96 148 108 197 4 15 10 26 13 22 4 -3 37 -81 74 -172z m-314 -56 c-6 -215 -32 -340 -109 -526 -37 -90 -54 -101 -104 -67 -32 22 -48 25 -118 25 -156 0 -318 -41 -370 -93 -27 -27 -39 -31 -102 -35 -62 -4 -74 -2 -92 16 -40 40 -301 102 -428 102 -39 0 -104 -31 -104 -50 0 -5 -6 -10 -14 -10 -17 0 -102 90 -109 116 -55 191 -61 235 -61 451 0 117 3 215 5 218 3 2 50 -4 105 -15 183 -35 378 -51 629 -51 304 0 555 22 775 70 47 10 89 19 94 20 5 0 6 -73 3 -171z m-1867 128 c0 -34 26 -91 52 -116 13 -12 44 -33 70 -46 48 -24 68 -48 68 -81 0 -21 -56 -143 -65 -143 -4 0 -34 16 -68 36 -34 20 -82 44 -107 54 -25 10 -44 22 -43 27 1 4 18 54 38 110 19 56 35 120 35 143 0 22 5 40 10 40 6 0 10 -11 10 -24z m1930 -288 c0 -10 -4 -18 -10 -18 -5 0 -10 15 -10 33 0 24 3 28 10 17 5 -8 10 -23 10 -32z m388 -70 c66 -87 90 -130 107 -191 14 -49 15 -66 5 -108 -21 -84 -123 -179 -194 -179 l-26 0 30 47 c34 53 36 69 16 118 -10 23 -24 37 -41 41 -32 8 -75 -10 -75 -31 0 -17 -38 -35 -75 -35 -13 0 -34 10 -45 23 -23 23 -23 32 -4 215 6 60 9 65 46 89 50 34 133 62 179 63 32 0 41 -6 77 -52z m-2340 -8 c102 -48 114 -61 120 -128 2 -31 5 -89 6 -129 1 -63 -2 -75 -23 -97 -16 -17 -35 -26 -54 -26 -32 0 -67 24 -67 46 0 18 -40 44 -67 44 -48 0 -71 -96 -38 -160 15 -29 15 -30 -5 -30 -26 0 -90 32 -111 56 -31 36 -50 85 -56 147 -4 51 -1 72 16 113 31 72 158 192 206 194 6 0 39 -14 73 -30z m251 -150 c5 -24 8 -46 6 -49 -3 -2 -24 11 -49 30 l-44 34 13 40 c7 22 21 58 31 79 l19 39 7 -64 c3 -35 11 -84 17 -109z m1716 -88 c0 -50 5 -64 30 -96 17 -21 39 -53 51 -72 11 -18 30 -44 42 -57 l22 -23 -72 -42 c-75 -42 -209 -106 -285 -136 l-43 -16 0 119 0 118 40 27 c41 27 72 77 84 133 6 26 19 39 69 67 34 19 62 35 62 36 0 0 0 -26 0 -58z m-1648 -136 c17 -4 47 -25 68 -46 22 -22 45 -40 52 -40 9 0 13 -14 12 -42 -1 -60 -15 -207 -21 -213 -2 -3 -56 15 -120 39 -186 71 -352 155 -308 156 20 0 70 47 70 65 0 8 18 26 40 40 23 15 46 39 54 60 l15 35 54 -24 c30 -13 68 -27 84 -30z m1904 -19 c-26 -26 -84 -28 -108 -4 -17 16 -15 17 29 11 40 -6 49 -3 70 17 17 17 24 20 26 10 2 -7 -5 -23 -17 -34z m-2246 -39 c16 -3 17 -5 5 -10 -28 -11 -85 15 -88 41 l-4 23 34 -25 c18 -14 42 -27 53 -29z m1671 30 c14 -14 15 -37 9 -202 l-7 -185 -182 -3 c-99 -2 -182 -2 -184 -2 -2 1 -16 66 -33 145 -16 79 -31 154 -34 167 -5 20 2 26 51 48 112 49 343 69 380 32z m-905 -13 c46 -8 111 -23 144 -33 54 -16 60 -20 57 -43 -5 -33 -91 -292 -102 -302 -6 -7 -348 10 -358 18 -3 3 28 347 33 363 6 17 121 16 226 -3z m456 -242 l30 -143 -165 0 c-131 0 -163 3 -159 13 3 7 24 72 47 145 l43 131 81 3 c45 2 84 1 87 -2 4 -3 20 -69 36 -147z m-482 -189 c72 -3 136 -11 143 -17 40 -32 99 -212 87 -266 -8 -36 -5 -36 -377 -33 -272 2 -275 3 -264 77 10 78 46 155 96 207 l47 49 69 -5 c38 -3 128 -8 199 -12z m971 -16 c74 -59 114 -129 128 -228 12 -82 24 -80 -327 -80 -169 -1 -312 2 -318 6 -31 18 16 197 71 272 35 48 34 48 256 50 153 2 163 1 190 -20z"/>
    <path d="M3770 5183 c-105 -69 -223 -234 -245 -343 l-7 -35 31 41 c32 43 88 86 131 102 l25 9 -31 19 c-37 23 -34 44 7 44 17 0 29 5 29 13 0 18 38 86 72 130 32 40 28 46 -12 20z"/>
    <path d="M4752 5003 c4 -21 33 -25 33 -3 0 8 -8 16 -18 18 -14 3 -18 -1 -15 -15z"/>
    <path d="M4868 4988 c-7 -19 2 -38 17 -38 15 0 28 27 19 41 -8 13 -31 11 -36 -3z"/>
    <path d="M3717 4770 c-74 -9 -91 -32 -99 -138 -3 -48 -7 -174 -7 -281 l-1 -193 38 -38 c33 -33 46 -38 112 -48 246 -36 775 -41 973 -8 96 15 128 31 158 79 18 30 19 47 17 295 l-3 264 -31 28 -32 28 -193 6 c-262 9 -873 12 -932 6z m216 -261 c30 -31 30 -32 11 -46 -10 -8 -31 -17 -46 -20 -37 -7 -35 -26 5 -52 31 -20 31 -21 9 -27 -18 -5 -20 -9 -10 -21 18 -22 79 -50 127 -58 l44 -7 -34 -15 c-53 -22 -167 -14 -210 16 -58 39 -74 69 -74 134 0 55 2 61 37 93 51 46 97 47 141 3z m777 -44 c52 -55 13 -145 -61 -145 -39 0 -89 48 -89 85 0 16 12 38 29 56 38 38 88 40 121 4z"/>
    <path d="M4805 3027 c-8 -29 11 -70 28 -64 7 2 12 21 12 43 0 47 -30 62 -40 21z"/>
    <path d="M4154 2962 c-65 -52 -57 -139 16 -177 57 -30 122 -7 146 52 20 46 10 86 -28 118 -36 30 -101 34 -134 7z m101 -47 c30 -29 31 -49 5 -75 -24 -24 -57 -26 -82 -3 -24 21 -23 58 2 83 26 26 46 25 75 -5z"/>
    <path d="M4922 2967 c-13 -15 1 -42 17 -33 13 9 15 33 2 40 -5 3 -13 0 -19 -7z"/>
    <path d="M3482 2738 c6 -136 20 -192 58 -220 24 -17 38 -18 164 -12 l139 7 -53 14 c-76 19 -140 57 -201 119 -52 53 -53 54 -25 54 l28 0 -24 28 c-13 15 -34 51 -48 80 -14 29 -29 52 -34 52 -4 0 -6 -55 -4 -122z"/>
    <path d="M4360 1774 c-34 -113 -49 -104 173 -104 127 0 187 4 177 10 -8 5 -25 10 -38 10 -12 0 -63 16 -112 35 -49 19 -99 35 -110 35 -11 0 -20 5 -20 10 0 6 12 10 27 10 25 0 23 2 -20 30 -26 17 -50 30 -52 30 -2 0 -13 -30 -25 -66z"/>
    <path d="M2200 6192 c0 -4 14 -48 30 -97 17 -49 30 -92 30 -97 0 -4 -28 8 -62 28 -130 74 -281 134 -296 119 -6 -5 63 -96 104 -140 76 -80 134 -147 134 -156 0 -5 -11 -9 -24 -9 -33 0 -152 -37 -206 -65 -53 -27 -160 -105 -160 -117 0 -4 48 -8 108 -8 149 -1 312 -37 312 -71 0 -4 -75 -46 -167 -93 -143 -72 -163 -85 -133 -85 75 0 187 27 259 64 98 49 202 117 198 130 -1 5 -35 26 -74 46 -77 38 -186 69 -249 70 -36 0 -37 1 -14 10 27 11 160 43 223 54 20 3 37 9 37 13 0 4 -31 50 -69 102 -38 52 -66 96 -61 98 17 6 166 -78 228 -128 34 -28 64 -50 66 -50 12 0 -20 116 -49 175 -30 61 -165 231 -165 207z"/>
  </g>
</svg>