<svg xmlns="http://www.w3.org/2000/svg" viewBox="0 0 1600 900" role="img" aria-labelledby="title desc">
  <title id="title">Issue 3116 管道运算符重载 ICE 修复闭环</title>
  <desc id="desc">展示 ACEHarness 在 Issue 3116 中通过状态机回退、人机协同和多角色对抗完成管道运算符重载 ICE 修复的流程。</desc>
  <defs>
    <linearGradient id="bg3116" x1="0" y1="0" x2="1" y2="1">
      <stop offset="0%" stop-color="#08111f"/>
      <stop offset="55%" stop-color="#111f39"/>
      <stop offset="100%" stop-color="#180d2e"/>
    </linearGradient>
    <linearGradient id="cardBlue" x1="0" y1="0" x2="1" y2="1">
      <stop offset="0%" stop-color="#0f172a"/>
      <stop offset="100%" stop-color="#111827"/>
    </linearGradient>
    <linearGradient id="result" x1="0" y1="0" x2="1" y2="0">
      <stop offset="0%" stop-color="#1d4ed8"/>
      <stop offset="100%" stop-color="#7c3aed"/>
    </linearGradient>
    <filter id="shadow3116" x="-20%" y="-20%" width="140%" height="140%">
      <feDropShadow dx="0" dy="18" stdDeviation="22" flood-color="#020617" flood-opacity="0.35"/>
    </filter>
    <marker id="arrow3116" viewBox="0 0 10 10" refX="8.2" refY="5" markerWidth="8" markerHeight="8" orient="auto-start-reverse">
      <path d="M0,0 L10,5 L0,10 z" fill="#60a5fa"/>
    </marker>
    <marker id="arrowSoft3116" viewBox="0 0 10 10" refX="8.2" refY="5" markerWidth="8" markerHeight="8" orient="auto-start-reverse">
      <path d="M0,0 L10,5 L0,10 z" fill="#f59e0b"/>
    </marker>
  </defs>

  <rect width="1600" height="900" fill="url(#bg3116)"/>
  <circle cx="260" cy="140" r="220" fill="#38bdf8" fill-opacity="0.16"/>
  <circle cx="1430" cy="150" r="180" fill="#a855f7" fill-opacity="0.14"/>

  <text x="92" y="88" fill="#93c5fd" font-size="16" font-family="Segoe UI, PingFang SC, Microsoft YaHei, sans-serif" letter-spacing="3">ISSUE #3116</text>
  <text x="92" y="142" fill="#f8fafc" font-size="46" font-weight="700" font-family="Segoe UI, PingFang SC, Microsoft YaHei, sans-serif">管道运算符重载 ICE 修复</text>
  <text x="92" y="182" fill="#cbd5e1" font-size="18" font-family="Segoe UI, PingFang SC, Microsoft YaHei, sans-serif">状态机工作流通过红蓝对抗与人工审查，定位 |> + lambda + 重载函数触发的 SIGSEGV 崩溃，修复检查点深度不变量破坏。</text>

  <g filter="url(#shadow3116)">
    <rect x="92" y="224" width="210" height="104" rx="22" fill="#0b1223" stroke="#1d4ed8"/>
    <text x="118" y="262" fill="#93c5fd" font-size="16" font-family="Segoe UI, PingFang SC, Microsoft YaHei, sans-serif">总耗时</text>
    <text x="118" y="308" fill="#f8fafc" font-size="30" font-weight="700" font-family="Segoe UI, PingFang SC, Microsoft YaHei, sans-serif">7.5h</text>

    <rect x="324" y="224" width="210" height="104" rx="22" fill="#0b1223" stroke="#0ea5e9"/>
    <text x="350" y="262" fill="#93c5fd" font-size="16" font-family="Segoe UI, PingFang SC, Microsoft YaHei, sans-serif">执行步骤</text>
    <text x="350" y="308" fill="#f8fafc" font-size="30" font-weight="700" font-family="Segoe UI, PingFang SC, Microsoft YaHei, sans-serif">57</text>

    <rect x="556" y="224" width="210" height="104" rx="22" fill="#0b1223" stroke="#f59e0b"/>
    <text x="582" y="262" fill="#fcd34d" font-size="16" font-family="Segoe UI, PingFang SC, Microsoft YaHei, sans-serif">自动回退</text>
    <text x="582" y="308" fill="#f8fafc" font-size="30" font-weight="700" font-family="Segoe UI, PingFang SC, Microsoft YaHei, sans-serif">3 次</text>

    <rect x="788" y="224" width="210" height="104" rx="22" fill="#0b1223" stroke="#22c55e"/>
    <text x="814" y="262" fill="#86efac" font-size="16" font-family="Segoe UI, PingFang SC, Microsoft YaHei, sans-serif">回归测试</text>
    <text x="814" y="308" fill="#f8fafc" font-size="30" font-weight="700" font-family="Segoe UI, PingFang SC, Microsoft YaHei, sans-serif">5 新增</text>
  </g>

  <g filter="url(#shadow3116)">
    <rect x="1104" y="224" width="404" height="104" rx="22" fill="#0b1223" stroke="#7c3aed"/>
    <text x="1134" y="262" fill="#c4b5fd" font-size="16" font-family="Segoe UI, PingFang SC, Microsoft YaHei, sans-serif">最终结论</text>
    <text x="1134" y="294" fill="#f8fafc" font-size="20" font-weight="700" font-family="Segoe UI, PingFang SC, Microsoft YaHei, sans-serif">
      <tspan x="1134" y="294">AI 修复方案与人类开发者</tspan>
      <tspan x="1134" dy="28">方案完全一致</tspan>
    </text>
  </g>

  <rect x="78" y="386" width="1444" height="278" rx="34" fill="#0f172a" fill-opacity="0.62" stroke="#334155"/>

  <g filter="url(#shadow3116)">
    <rect x="96" y="402" width="214" height="54" rx="18" fill="#0b1223" stroke="#475569"/>
    <circle cx="122" cy="428" r="8" fill="#38bdf8"/>
    <text x="140" y="424" fill="#cbd5e1" font-size="15" font-family="Segoe UI, PingFang SC, Microsoft YaHei, sans-serif">
      <tspan x="140" y="424">Blue Team</tspan>
      <tspan x="140" dy="18">issue-reproducer / architect</tspan>
    </text>

    <rect x="332" y="402" width="214" height="54" rx="18" fill="#0b1223" stroke="#475569"/>
    <circle cx="358" cy="428" r="8" fill="#ef4444"/>
    <text x="376" y="424" fill="#cbd5e1" font-size="15" font-family="Segoe UI, PingFang SC, Microsoft YaHei, sans-serif">
      <tspan x="376" y="424">Red Team</tspan>
      <tspan x="376" dy="18">fix-breaker / code reviewer</tspan>
    </text>

    <rect x="568" y="402" width="214" height="54" rx="18" fill="#0b1223" stroke="#475569"/>
    <circle cx="594" cy="428" r="8" fill="#f59e0b"/>
    <text x="612" y="424" fill="#cbd5e1" font-size="15" font-family="Segoe UI, PingFang SC, Microsoft YaHei, sans-serif">
      <tspan x="612" y="424">Judge</tspan>
      <tspan x="612" dy="18">fix-judge / code-auditor</tspan>
    </text>

    <rect x="126" y="480" width="194" height="92" rx="24" fill="url(#cardBlue)" stroke="#38bdf8" stroke-width="2"/>
    <text x="160" y="520" fill="#e0f2fe" font-size="16" font-family="Segoe UI, PingFang SC, Microsoft YaHei, sans-serif">ENTRY</text>
    <text x="160" y="558" fill="#f8fafc" font-size="24" font-weight="700" font-family="Segoe UI, PingFang SC, Microsoft YaHei, sans-serif">问题复现</text>

    <rect x="376" y="480" width="194" height="92" rx="24" fill="url(#cardBlue)" stroke="#60a5fa" stroke-width="2"/>
    <text x="410" y="520" fill="#bfdbfe" font-size="16" font-family="Segoe UI, PingFang SC, Microsoft YaHei, sans-serif">STATE 02</text>
    <text x="410" y="558" fill="#f8fafc" font-size="24" font-weight="700" font-family="Segoe UI, PingFang SC, Microsoft YaHei, sans-serif">根因定位</text>

    <rect x="626" y="480" width="194" height="92" rx="24" fill="url(#cardBlue)" stroke="#60a5fa" stroke-width="2"/>
    <text x="660" y="520" fill="#bfdbfe" font-size="16" font-family="Segoe UI, PingFang SC, Microsoft YaHei, sans-serif">STATE 03</text>
    <text x="660" y="558" fill="#f8fafc" font-size="24" font-weight="700" font-family="Segoe UI, PingFang SC, Microsoft YaHei, sans-serif">方案设计</text>

    <rect x="876" y="474" width="170" height="104" rx="28" fill="#2b1b08" stroke="#f59e0b" stroke-width="2"/>
    <text x="910" y="516" fill="#fcd34d" font-size="16" font-family="Segoe UI, PingFang SC, Microsoft YaHei, sans-serif">HUMAN GATE</text>
    <text x="910" y="558" fill="#fff7ed" font-size="22" font-weight="700" font-family="Segoe UI, PingFang SC, Microsoft YaHei, sans-serif">人工审批</text>

    <rect x="1102" y="480" width="194" height="92" rx="24" fill="url(#cardBlue)" stroke="#60a5fa" stroke-width="2"/>
    <text x="1136" y="520" fill="#bfdbfe" font-size="16" font-family="Segoe UI, PingFang SC, Microsoft YaHei, sans-serif">STATE 04</text>
    <text x="1136" y="558" fill="#f8fafc" font-size="24" font-weight="700" font-family="Segoe UI, PingFang SC, Microsoft YaHei, sans-serif">代码修复</text>

    <rect x="1352" y="480" width="140" height="92" rx="24" fill="url(#cardBlue)" stroke="#22c55e" stroke-width="2"/>
    <text x="1376" y="520" fill="#86efac" font-size="16" font-family="Segoe UI, PingFang SC, Microsoft YaHei, sans-serif">DONE</text>
    <text x="1376" y="558" fill="#f8fafc" font-size="24" font-weight="700" font-family="Segoe UI, PingFang SC, Microsoft YaHei, sans-serif">验证</text>
  </g>

  <path d="M320 526H376" stroke="#60a5fa" stroke-width="4" marker-end="url(#arrow3116)"/>
  <path d="M570 526H626" stroke="#60a5fa" stroke-width="4" marker-end="url(#arrow3116)"/>
  <path d="M820 526H876" stroke="#f59e0b" stroke-width="4" marker-end="url(#arrowSoft3116)"/>
  <path d="M1046 526H1102" stroke="#60a5fa" stroke-width="4" marker-end="url(#arrow3116)"/>
  <path d="M1296 526H1352" stroke="#60a5fa" stroke-width="4" marker-end="url(#arrow3116)"/>

  <path d="M1116 612C1116 700 734 704 734 594" fill="none" stroke="#f59e0b" stroke-width="4" stroke-dasharray="10 10" marker-end="url(#arrowSoft3116)"/>
  <text x="916" y="704" fill="#fcd34d" font-size="15" font-family="Segoe UI, PingFang SC, Microsoft YaHei, sans-serif">审查发现缺陷，回到方案设计</text>

  <path d="M718 458C718 392 472 384 472 468" fill="none" stroke="#60a5fa" stroke-width="4" stroke-dasharray="10 10" marker-end="url(#arrow3116)"/>
  <text x="472" y="382" fill="#93c5fd" font-size="15" font-family="Segoe UI, PingFang SC, Microsoft YaHei, sans-serif">红队挑战未通过，退回根因定位</text>

  <path d="M468 612C468 708 224 714 224 594" fill="none" stroke="#60a5fa" stroke-width="4" stroke-dasharray="10 10" marker-end="url(#arrow3116)"/>
  <text x="98" y="706" fill="#93c5fd" font-size="15" font-family="Segoe UI, PingFang SC, Microsoft YaHei, sans-serif">Judge 判定失败，回到问题复现</text>

  <path d="M224 572V678" stroke="#ef4444" stroke-width="4" stroke-dasharray="10 10" marker-end="url(#arrowSoft3116)"/>
  <rect x="120" y="676" width="208" height="84" rx="22" fill="#2a1013" stroke="#ef4444"/>
  <text x="148" y="712" fill="#fecaca" font-size="17" font-weight="700" font-family="Segoe UI, PingFang SC, Microsoft YaHei, sans-serif">
    <tspan x="148" y="712">无法复现</tspan>
    <tspan x="148" dy="26">失败结束</tspan>
  </text>

  <g filter="url(#shadow3116)">
    <rect x="388" y="736" width="1120" height="112" rx="28" fill="url(#result)"/>
    <text x="428" y="778" fill="#e0e7ff" font-size="16" font-family="Segoe UI, PingFang SC, Microsoft YaHei, sans-serif">RESULT SNAPSHOT</text>
    <text x="428" y="810" fill="#ffffff" font-size="22" font-weight="700" font-family="Segoe UI, PingFang SC, Microsoft YaHei, sans-serif">
      <tspan x="428" y="810">定位 TypeCheckUtil.cpp:978 PSet::clear() 破坏检查点深度，</tspan>
      <tspan x="428" dy="30">改用 erase() 循环保持不变量，ICE 消除 + 功能回归验证通过。</tspan>
    </text>
  </g>

</svg>
